HIERARCHY
ROOT Hips
{
  OFFSET 263.056 91.6644 -274.608
  CHANNELS 6 Xposition Yposition Zposition Zrotation Xrotation Yrotation
  JOINT LeftUpLeg
  {
    OFFSET 8.64259 1.95398 -2.38835
    CHANNELS 3 Zrotation Xrotation Yrotation
    JOINT LeftLeg
    {
      OFFSET 43.7702 0 0
      CHANNELS 3 Zrotation Xrotation Yrotation
      JOINT LeftFoot
      {
        OFFSET 40.6238 0 0
        CHANNELS 3 Zrotation Xrotation Yrotation
        JOINT LeftToeBase
        {
          OFFSET 12.7242 0 0
          CHANNELS 3 Zrotation Xrotation Yrotation
          End Site
          {
            OFFSET 0 0 0
          }
        }
      }
    }
  }
  JOINT RightUpLeg
  {
    OFFSET -8.2249 1.95398 -2.59336
    CHANNELS 3 Zrotation Xrotation Yrotation
    JOINT RightLeg
    {
      OFFSET 43.5653 0 0
      CHANNELS 3 Zrotation Xrotation Yrotation
      JOINT RightFoot
      {
        OFFSET 40.6238 0 0
        CHANNELS 3 Zrotation Xrotation Yrotation
        JOINT RightToeBase
        {
          OFFSET 12.7242 0 0
          CHANNELS 3 Zrotation Xrotation Yrotation
          End Site
          {
            OFFSET 0 0 0
          }
        }
      }
    }
  }
  JOINT Spine
  {
    OFFSET 0.165834 0.87714 6.61349
    CHANNELS 3 Zrotation Xrotation Yrotation
    JOINT Spine1
    {
      OFFSET 7.38963 1.71661e-005 0
      CHANNELS 3 Zrotation Xrotation Yrotation
      JOINT Spine2
      {
        OFFSET 11.9445 1.14441e-005 0
        CHANNELS 3 Zrotation Xrotation Yrotation
        JOINT Spine3
        {
          OFFSET 14.7254 4.19617e-005 0
          CHANNELS 3 Zrotation Xrotation Yrotation
          JOINT Spine4
          {
            OFFSET 10.9679 0 0
            CHANNELS 3 Zrotation Xrotation Yrotation
            JOINT RightShoulder
            {
              OFFSET 2.46616 -1.6653 3.69651
              CHANNELS 3 Zrotation Xrotation Yrotation
              JOINT RightArm
              {
                OFFSET 13.0012 0 0
                CHANNELS 3 Zrotation Xrotation Yrotation
                JOINT RightForeArm
                {
                  OFFSET 28.7848 1.52588e-005 0
                  CHANNELS 3 Zrotation Xrotation Yrotation
                  JOINT RightHand
                  {
                    OFFSET 26.5688 1.52588e-005 0
                    CHANNELS 3 Zrotation Xrotation Yrotation
                    End Site
                    {
                      OFFSET 0 0 0
                    }
                  }
                }
              }
            }
            JOINT LeftShoulder
            {
              OFFSET 2.38034 -1.29275 -3.7523
              CHANNELS 3 Zrotation Xrotation Yrotation
              JOINT LeftArm
              {
                OFFSET 16.3182 6.10352e-005 0
                CHANNELS 3 Zrotation Xrotation Yrotation
                JOINT LeftForeArm
                {
                  OFFSET 27.0901 0 0
                  CHANNELS 3 Zrotation Xrotation Yrotation
                  JOINT LeftHand
                  {
                    OFFSET 24.5451 1.52588e-005 0
                    CHANNELS 3 Zrotation Xrotation Yrotation
                    End Site
                    {
                      OFFSET 0 0 0
                    }
                  }
                }
              }
            }
            JOINT Neck
            {
              OFFSET 5.0226 -0.0266342 0
              CHANNELS 3 Zrotation Xrotation Yrotation
              JOINT Head
              {
                OFFSET 6.69364 2.86102e-005 0
                CHANNELS 3 Zrotation Xrotation Yrotation
                End Site
                {
                  OFFSET 0 0 0
                }
              }
            }
          }
        }
      }
    }
  }
}
MOTION
Frames:	14
Frame Time:	0.0416667
17.6956 70.6822 -306.429 -7.0886 22.3456 35.6726 20.4803 42.7749 -104.518 -95.6821 -65.129 8.19054 -65.9979 -60.0745 -139.547 -132.908 -36.8656 -91.5888 -20.9754 21.8063 -105.761 -11.0809 18.1659 -0.0275606 52.1919 20.9585 3.49415 126.292 65.7078 58.1721 -2.7223 -7.77434 -89.9072 42.548 -4.65582 2.79983 30.8819 -4.52812 3.00221 8.28654 -5.28152 1.26829 28.2992 -5.28151 1.26829 124.412 -34.7846 -40.8413 -8.60137 -47.571 -77.9944 0.207337 -0.21847 -37.4217 -38.3704 -22.7466 57.4086 -98.6067 -29.6203 57.1578 -49.9583 46.7611 13.0909 -14.7488 -8.47209 -46.8008 55.0459 -3.29772 -10.2224 -4.78046 -11.8962 -19.3604 -24.0342 -11.5997 8.75954 
17.4643 71.2408 -302.849 -2.70635 15.6161 28.2596 28.6 59.1523 -118.285 -27.2743 -79.5044 70.0537 -37.4747 -52.3824 -96.3808 -103.481 4.94789 -89.9534 -13.9342 20.2319 -103.788 -25.492 8.00761 5.5817 62.8439 19.4187 2.95785 122.25 66.1798 62.3829 -2.62506 -6.26754 -92.1237 39.3936 -6.07065 -1.49109 27.7365 -6.13036 -1.22154 5.11285 -5.34112 -3.2509 25.1255 -5.34113 -3.25091 104.532 -53.1069 -78.2804 -58.8433 -45.7365 -96.793 -12.9094 30.2027 -29.46 -36.024 -22.8932 58.5336 -91.3753 -41.5058 74.3357 -51.5312 38.127 20.7745 0.612926 -2.30284 -62.8633 55.0696 -0.243966 -4.60154 -13.0768 -0.0597277 -1.07675 -8.0101 -0.460705 2.49488 
16.2107 74.3056 -299.776 0.574417 4.23962 17.5754 54.5732 78.5874 -140.766 2.90641 -82.45 87.8662 -5.92278 -40.4637 -55.2807 19.6972 13.0256 -162.191 2.87943 29.2971 -106.987 -25.6487 -8.17402 14.6278 67.0135 8.93485 1.65836 120.996 66.4889 63.8871 -2.25907 -3.81962 -92.7818 34.5925 -5.96115 -3.41332 22.931 -6.10546 -3.14717 0.361599 -4.66127 -5.04738 20.3743 -4.66127 -5.04739 70.8545 -53.988 -127.098 -95.6706 -54.9022 -109.88 -45.1073 39.7938 -5.79518 -31.6282 -17.7382 51.7764 -81.3758 -46.942 91.6152 -48.3804 27.205 21.0382 18.2414 0.146106 -78.3617 43.773 2.8494 2.68588 -12.3255 6.00096 15.4149 1.25703 5.29808 -6.77325 
14.4742 82.5711 -295.298 1.89476 -10.8965 2.88675 -175.448 74.9666 92.8261 -57.7351 -83.7742 8.55955 4.47338 -35.0792 -35.9849 40.7726 2.15312 -167.58 7.68183 53.1073 -94.2964 -23.3518 -19.4933 3.44128 69.184 -1.44534 -3.09533 123.273 65.7057 60.9389 -0.625825 -1.80101 -89.9612 30.1586 -1.44663 -0.352755 18.4882 -1.46074 -0.288759 -4.0507 -1.27376 -0.771225 15.962 -1.27375 -0.771224 71.6425 -54.9199 -125.573 -35.6559 -65.1003 -51.7074 -55.0792 18.8767 -26.7375 -33.6388 -5.58811 14.3144 -92.8914 -47.1789 73.6632 -42.9613 13.3378 26.134 22.1503 -2.8392 -88.2345 34.7501 3.66162 6.74162 -6.29806 3.4148 10.274 2.20862 2.28972 -5.91076 
11.5666 88.6618 -294.307 1.09692 -28.9067 -13.8336 -154.69 62.4478 74.3276 -70.7711 -65.0082 -8.89444 7.93082 -26.6928 -42.3961 -20.0222 21.273 -125.373 -7.30608 74.323 -70.4938 -31.4084 -26.4269 -7.27384 75.291 -6.54287 -4.53263 124.17 65.2805 59.6783 0.633097 1.18241 -88.1305 24.4679 2.29561 3.23752 12.7952 2.4358 3.13345 -9.71342 1.21727 3.77705 10.2992 1.21727 3.77705 79.8426 -51.4278 -115.56 13.1518 -44.8521 -10.4746 -61.8248 17.1464 -60.156 -38.4273 2.73008 -11.9454 -97.4537 -44.1684 65.6589 -40.818 10.0685 28.5497 19.4438 -3.81034 -91.0572 33.9622 3.63643 6.95401 4.17473 1.01155 4.9185 -0.853738 0.059839 -3.34541 
10.5115 90.0709 -294.547 -2.01212 -47.1547 -25.9543 -148.649 54.9262 68.0696 -67.6976 -16.9976 -8.03585 41.7889 -15.9266 -20.3936 33.4976 7.13698 9.62748 -66.333 85.1682 -13.5671 -51.9046 -31.3653 -11.9928 86.7933 -12.5906 -6.89406 120.122 65.8553 64.0619 1.11231 3.68254 -86.9025 19.4173 3.84461 5.54856 7.74085 4.08472 5.37449 -14.7145 2.0034 6.44402 5.29819 2.0034 6.44401 83.8353 -47.7192 -110.971 30.1883 -32.4075 3.52173 -54.5892 22.1737 -83.0661 -43.3212 4.04653 -14.2769 -97.2608 -41.9236 65.1128 -42.3538 10.7093 32.8032 19.2628 -5.01651 -93.5513 35.3039 3.86898 7.20673 6.71636 -0.905125 3.68199 -1.16725 -1.6833 -3.58263 
11.8361 91.9438 -291.245 -2.72831 -63.4384 -24.6899 -157.368 47.9368 73.899 -56.4186 12.8381 -8.74936 50.6215 -4.80526 9.93424 38.9887 12.2555 9.27202 -155.277 76.0782 69.6347 -67.1613 -26.6387 -11.6543 102.916 -19.7471 -6.30959 115.606 66.2426 68.8354 0.859908 5.43993 -87.1473 15.9141 3.14055 5.2396 4.23691 3.36782 5.09675 -18.2221 1.42384 5.93875 1.79054 1.42385 5.93875 84.7285 -45.2812 -110.439 36.5108 -28.8178 8.65647 -39.087 19.6599 -97.2899 -48.2983 0.141746 -3.88199 -95.5505 -40.5913 67.3578 -45.6135 10.7502 38.1814 15.6442 -6.14728 -95.4767 33.3884 3.37376 6.24345 7.13374 -1.71542 4.36742 -1.8008 -2.62297 -4.92555 
14.0485 94.5415 -285.63 6.45032 -74.6062 -8.52525 -168.281 43.4251 82.625 -45.299 12.5198 -5.03331 48.3289 -8.07277 2.06457 37.2575 10.2 12.2682 -179.542 61.0402 82.8637 -70.0545 -27.5434 -0.673825 117.762 -25.2349 -2.64798 122.711 68.6196 64.4732 0.617972 6.46246 -88.0204 13.9018 2.19116 3.67644 2.22787 2.35075 3.57658 -20.27 0.986013 4.16416 -0.25733 0.98601 4.16415 85.8612 -44.7509 -108.813 37.7607 -31.2211 9.38376 -31.7767 16.7201 -101.638 -44.0784 -2.69277 3.08276 -95.0527 -38.7941 67.5064 -48.9145 10.2474 43.0368 16.2983 -6.96635 -96.0399 28.668 2.64468 5.47746 6.82438 -2.80429 3.82854 -2.50421 -3.54686 -5.32634 
16.0853 95.879 -279.148 14.2023 -79.8004 4.76156 -172.868 38.046 87.3347 -29.3367 18.3326 -3.35115 42.8446 -12.2842 -2.57495 40.3269 15.1281 17.0439 174.291 46.831 85.5994 -71.3418 -27.1884 3.94743 129.681 -28.0766 0.351499 122.113 72.2803 68.791 0.761879 6.98354 -88.7065 12.8803 2.13271 2.3296 1.20915 2.23315 2.2335 -21.3158 1.3343 2.86254 -1.30317 1.3343 2.86253 86.6681 -43.3595 -107.976 39.8661 -31.8954 10.6169 -30.689 19.7627 -106.134 -25.2366 -1.995 4.86785 -94.919 -37.7664 67.3441 -51.1589 10.377 45.5169 14.2143 -7.08159 -97.1903 36.0877 3.29348 5.31053 8.00776 -3.66138 3.71797 -3.17508 -4.36684 -5.07018 
17.6916 96.6386 -271.946 16.8125 -82.0905 10.6165 -173.705 33.9252 89.4324 -16.6582 19.9683 -2.75413 42.2374 -12.4802 -0.571866 42.1828 15.8816 6.5292 174.806 34.5788 87.0376 -71.7784 -20.1223 4.50492 137.359 -28.7696 2.29686 96.5333 75.7641 99.0499 0.981319 7.20068 -89.0736 12.4542 2.39044 1.57669 0.784643 2.4575 1.46992 -21.754 1.80617 2.22218 -1.7413 1.80618 2.22218 87.3935 -43.5878 -106.712 39.6616 -32.5438 11.7146 -29.3911 22.6899 -106.945 -24.0682 -2.02768 5.39742 -95.0093 -37.3346 67.0267 -51.5121 9.62952 46.2482 16.0782 -7.48455 -97.7324 33.3932 3.22633 5.87965 9.4181 -4.24988 2.40079 -3.19156 -4.68934 -4.23418 
18.779 96.16 -264.073 16.6101 -84.121 10.8051 -173.044 28.9125 89.2356 -9.43183 15.9017 -3.17844 40.2054 -13.2894 -6.45936 48.4548 24.6463 10.4558 176.174 23.8602 90.3437 -73.4477 -4.15694 -0.853762 140.143 -26.6046 2.43063 39.5702 38.6305 161.733 1.00152 7.39933 -89.1494 12.0596 2.39271 1.43451 0.390157 2.45352 1.32778 -22.1503 1.85104 2.08731 -2.13763 1.85104 2.0873 86.7798 -43.7016 -107.68 39.2783 -31.6954 13.1257 -28.7729 19.8099 -104.9 -19.7538 -1.3389 3.13571 -94.5323 -37.9021 68.0463 -51.5664 8.89775 44.6438 15.2315 -7.11105 -97.8269 35.9261 3.54289 6.06953 10.5237 -4.01642 2.32975 -3.38802 -4.4548 -3.75032 
19.7344 95.0274 -256.485 19.3299 -86.3736 12.7059 -172.635 25.9404 87.8575 -12.6116 17.3192 -3.15483 41.5104 -12.8726 -4.32887 46.9616 22.6235 10.0352 177.18 15.1994 91.5577 -73.9254 7.50745 -3.6568 134.147 -27.8168 1.12793 31.2254 -43.7396 161.766 0.893145 7.57608 -89.0669 11.7044 2.2144 1.62842 0.0344573 2.2839 1.52937 -22.5016 1.62273 2.21856 -2.48899 1.62272 2.21855 85.8186 -44.7117 -108.895 39.1521 -29.7474 15.2528 -26.9613 15.9336 -102.592 -23.1933 -1.78509 4.27196 -94.3619 -38.9445 68.7126 -49.9497 7.04602 41.692 15.1867 -6.39066 -97.1035 35.2438 3.33833 5.672 10.0042 -3.54396 2.03393 -3.28976 -3.92219 -3.54883 
20.8282 93.8786 -249.204 50.714 -89.2694 44.406 -171.993 24.6601 87.5322 -25.3838 21.7075 -4.18071 51.8091 -3.89105 9.49797 42.3659 13.8194 -8.98901 176.248 10.2614 91.4149 -78.4156 7.52665 -4.24692 118.956 -26.855 -2.274 -94.1715 -64.2069 25.6414 0.816665 7.79168 -89.1165 11.2749 2.0366 1.5571 -0.39524 2.10316 1.46594 -22.9305 1.47458 2.09711 -2.91784 1.47458 2.0971 85.1036 -46.3628 -109.468 38.6632 -28.1398 17.6179 -24.4437 11.803 -98.2258 -27.7537 -2.25203 4.92043 -95.6979 -40.1183 66.9405 -47.3723 5.09434 38.7919 15.0057 -5.80556 -96.9002 35.5351 3.41169 5.80391 7.57212 -3.06426 1.31814 -1.22476 -3.32336 -2.91491 
21.7077 91.9527 -242.005 150.516 -88.6786 144.253 -171.313 23.6854 86.925 -37.2691 18.7015 -4.17522 60.4355 6.21254 14.8845 44.4962 14.835 -15.2646 176.555 12.9032 92.528 -87.2898 7.90671 -4.63199 94.7946 -18.8994 -5.54859 -82.2798 -26.5575 9.26728 0.509928 7.93278 -89.0877 10.9961 1.43787 1.67894 -0.675063 1.51036 1.61405 -23.2045 0.866913 2.03335 -3.19183 0.866905 2.03334 83.7032 -47.9762 -111.08 37.9783 -25.4388 19.064 -21.9836 5.4112 -91.4604 -27.4141 -1.67285 2.52366 -96.9911 -41.4957 65.3743 -44.0064 3.67729 34.3078 15.1744 -5.19452 -96.5403 36.1311 3.58586 6.1181 5.24545 -2.04979 0.236536 2.2954 -2.13525 -1.68543 
